{"title":"Good Intentions-AC3-5,1-DVDRip[Eng]2010","uid":5476091,"size":1471336770,"categoryP":"video","categoryS":"movies","magnet":"?xt=urn:btih:34f24a70f89d506d9174a5cbee79d3f8a6764a8c&amp;dn=Good+Intentions-AC3-5%2C1-DVDRip%5BEng%5D2010&amp;tr=udp%3A%2F%2Ftracker.openbittorrent.com%3A80&amp;tr=udp%3A%2F%2Fopen.demonii.com%3A1337&amp;tr=udp%3A%2F%2Ftracker.coppersurfer.tk%3A6969&amp;tr=udp%3A%2F%2Fexodus.desync.com%3A6969","seeders":1,"leechers":0,"uploader":"FatFreddy31","files":-1,"time":1270153170,"description":" &lt;a href=&quot;http://www.imdb.com/title/tt1070781/&quot; rel=&quot;nofollow&quot; target=&quot;_NEW&quot;&gt;http://www.imdb.com/title/tt1070781/&lt;/a&gt;\n &lt;a href=&quot;\nhttp://www.goodintentionsmovie.com/&quot; rel=&quot;nofollow&quot; target=&quot;_NEW&quot;&gt;\nhttp://www.goodintentionsmovie.com/&lt;/a&gt;\n\nUser Rating:4.5/10 - 105 votes\n\nComedy\n\nDirector:Jim Issa\n\nCast:Elaine Hendrix/Luke Perry/Jon Gries/Jimmi Simpson, and others.\n\nPlot:\nMeet Etta Milford. Loving Wife. Doting Mother. Armed Robber. Etta's husband constantly blows their money on make-shift inventions. When she decides to secretly take &quot;investment&quot; matters into her own hands - things quickly go awry! With their savings gone, her husband suspicious, and their children out of control, Etta concocts a scheme to get back their money and save her family. There \nare just a few things she has to do first, including blackmailing the sheriff and holding up the grocery store...\n\nInfo:\n\nCovers included.\n\nSubtitles: Dutch, English, Indonesian, Romanian, Spanish (srt).\n\nGeneral\nComplete name                    : Good Intentions-AC3-5,1-DVDRip[Eng]2010.avi\nFormat                           : AVI\nFormat/Info                      : Audio Video Interleave\nFile size                        : 1.37 GiB\nDuration                         : 1h 24mn\nOverall bit rate                 : 2 323 Kbps\nWriting application              : VirtualDubMod 1.5.10.2 (build 2540/release)\nWriting library                  : VirtualDubMod build 2540/release\n\nVideo\nID                               : 0\nFormat                           : MPEG-4 Visual\nFormat profile                   : AdvancedSimple@L5\nFormat settings, BVOP            : Yes\nFormat settings, QPel            : No\nFormat settings, GMC             : No warppoints\nFormat settings, Matrix          : Default (MPEG)\nCodec ID                         : XVID\nCodec ID/Hint                    : XviD\nDuration                         : 1h 24mn\nBit rate                         : 1 866 Kbps\nWidth                            : 720 pixels\nHeight                           : 400 pixels\nDisplay aspect ratio             : 16:9\nFrame rate                       : 23.976 fps\nResolution                       : 24 bits\nColorimetry                      : 4:2:0\nScan type                        : Progressive\nBits/(Pixel*Frame)               : 0.270\nStream size                      : 1.10 GiB (80%)\nWriting library                  : XviD 1.2.1 (UTC 2008-12-04)\n\nAudio\nID                               : 1\nFormat                           : AC-3\nFormat/Info                      : Audio Coding 3\nCodec ID                         : 2000\nDuration                         : 1h 24mn\nBit rate mode                    : Constant\nBit rate                         : 448 Kbps\nChannel(s)                       : 6 channels\nChannel positions                : Front: L C R, Surround: L R, LFE\nSampling rate                    : 48.0 KHz\nStream size                      : 270 MiB (19%)\nAlignment                        : Split accross interleaves\nInterleave, duration             : 42 ms (1.00 video frame)\nInterleave, preload duration     : 500 ms\n\nEnjoy...","torrent":{"xt":"urn:btih:34f24a70f89d506d9174a5cbee79d3f8a6764a8c","amp;dn":"Good+Intentions-AC3-5%2C1-DVDRip%5BEng%5D2010","amp;tr":["udp%3A%2F%2Ftracker.openbittorrent.com%3A80","udp%3A%2F%2Fopen.demonii.com%3A1337","udp%3A%2F%2Ftracker.coppersurfer.tk%3A6969","udp%3A%2F%2Fexodus.desync.com%3A6969"],"infoHash":"34f24a70f89d506d9174a5cbee79d3f8a6764a8c","infoHashBuffer":{"type":"Buffer","data":[52,242,74,112,248,157,80,109,145,116,165,203,238,121,211,248,166,118,74,140]},"announce":[],"urlList":[]}}